<?xml version="1.0" encoding="UTF-8"?>
<svg id="Layer_1" data-name="Layer 1" xmlns="http://www.w3.org/2000/svg" viewBox="180 360 690 520">
  <defs>
    <style>
      .cls-1 {
        font-family: Montserrat-ExtraBold, Montserrat;
        font-weight: 700;
      }

      .cls-2 {
        font-size: 68.91px;
      }

      .cls-2, .cls-3, .cls-4, .cls-5 {
        fill: #0080ff;
      }

      .cls-6, .cls-4 {
        font-size: 69.16px;
      }

      .cls-5 {
        fill-rule: evenodd;
      }
    </style>
  </defs>
  <path class="cls-3" d="M630.9,450.63h228.3v-83.41h-321.44v.23c12.62,29.65,24.42,57.37,35.39,83.17h57.75Z"/>
  <path class="cls-3" d="M645.43,620.48h186.37v-83.4h-221.86c13.76,32.34,25.59,60.14,35.49,83.4h0Z"/>
  <path class="cls-5" d="M255.99,793.38h154.45v-83.41h-96.81l4.96-12.17c8.94-21.93,20.2-49.53,33.76-82.8h-.27l56.62-138.19,56.62,138.19h-.23c44.85,110.07,67.27,165.1,67.27,165.1l-33.55-82.3,38.96,95.58h324.48v-83.41h-261.96l-147.15-345.79h-86.45l-182.64,429.2h71.94Z"/>
  <text class="cls-1" transform="translate(185.02 864.83)"><tspan class="cls-4" x="0" y="0">AVERON</tspan><tspan class="cls-6" x="315.51" y="0"> </tspan><tspan class="cls-2" x="335.64" y="0">ENERTEK</tspan></text>
</svg>
